<svg width="1024" height="1024" viewBox="0 0 1024 1024" fill="none" xmlns="http://www.w3.org/2000/svg">
<path d="M272.724 768H257.724V783H272.724V768ZM272.724 424.128H287.724V409.128H272.724V424.128ZM210.102 424.128H195.102V439.128H210.102V424.128ZM210.102 371.76V356.76H195.102V371.76H210.102ZM272.724 371.76V386.76H287.724V371.76H272.724ZM449.604 204.035L464.57 205.033L465.389 192.758L453.511 189.553L449.604 204.035ZM445.941 258.967L443.12 273.699L459.78 276.889L460.908 259.965L445.941 258.967ZM358.417 275.08L369.334 285.367L369.383 285.315L369.431 285.263L358.417 275.08ZM340.473 371.76H325.473V386.76H340.473V371.76ZM425.067 371.76H440.067V356.76H425.067V371.76ZM425.067 424.128V439.128H440.067V424.128H425.067ZM340.473 424.128V409.128H325.473V424.128H340.473ZM340.473 768V783H355.473V768H340.473ZM287.724 768V424.128H257.724V768H287.724ZM272.724 409.128H210.102V439.128H272.724V409.128ZM225.102 424.128V371.76H195.102V424.128H225.102ZM210.102 386.76H272.724V356.76H210.102V386.76ZM287.724 371.76V331.11H257.724V371.76H287.724ZM287.724 331.11C287.724 291.297 298.308 262.698 317.5 243.093L296.062 222.106C269.845 248.888 257.724 285.963 257.724 331.11H287.724ZM317.5 243.093C336.652 223.529 364.442 212.81 403.095 212.81V182.81C358.74 182.81 322.321 195.283 296.062 222.106L317.5 243.093ZM403.095 212.81C417.374 212.81 431.564 214.704 445.696 218.517L453.511 189.553C436.882 185.066 420.065 182.81 403.095 182.81V212.81ZM434.637 203.037L430.975 257.969L460.908 259.965L464.57 205.033L434.637 203.037ZM448.762 244.234C436.265 241.841 423.107 240.671 409.32 240.671V270.671C421.413 270.671 432.669 271.698 443.12 273.699L448.762 244.234ZM409.32 240.671C384.271 240.671 362.877 248.16 347.403 264.897L369.431 285.263C377.882 276.122 390.425 270.671 409.32 270.671V240.671ZM347.5 264.793C332.07 281.168 325.473 303.702 325.473 330.012H355.473C355.473 308.47 360.838 294.383 369.334 285.367L347.5 264.793ZM325.473 330.012V371.76H355.473V330.012H325.473ZM340.473 386.76H425.067V356.76H340.473V386.76ZM410.067 371.76V424.128H440.067V371.76H410.067ZM425.067 409.128H340.473V439.128H425.067V409.128ZM325.473 424.128V768H355.473V424.128H325.473ZM340.473 753H272.724V783H340.473V753Z" fill="#7BFFC6"/>
<path d="M710.249 620.417L701.249 632.417L701.369 632.507L701.49 632.594L710.249 620.417ZM638.105 594.05L634.963 608.717L634.973 608.719L634.984 608.721L638.105 594.05ZM556.44 567.683L549.602 581.033L549.635 581.05L549.668 581.067L556.44 567.683ZM511.763 531.062L499.315 539.431L499.364 539.505L499.415 539.578L511.763 531.062ZM538.496 398.127L529.026 386.495L529 386.515L528.975 386.536L538.496 398.127ZM753.096 399.226L743.493 410.749L743.518 410.77L743.542 410.79L753.096 399.226ZM795.21 488.215V503.215H810.21V488.215H795.21ZM727.095 488.215H712.095V503.215H727.095V488.215ZM703.291 440.241L693.515 451.618L693.558 451.655L693.602 451.692L703.291 440.241ZM654.585 539.118L651.297 553.753L651.309 553.756L651.32 553.758L654.585 539.118ZM783.491 604.304L771.042 612.671L771.121 612.789L771.203 612.906L783.491 604.304ZM756.392 743.464L765.392 755.464L765.425 755.439L765.457 755.414L756.392 743.464ZM504.438 711.604L492.004 719.993L492.062 720.079L492.122 720.165L504.438 711.604ZM483.931 646.052V631.052H468.931V646.052H483.931ZM551.68 646.052L566.658 645.246L565.895 631.052H551.68V646.052ZM578.779 700.251L569.43 711.981L569.523 712.055L569.617 712.128L578.779 700.251ZM707.686 704.646L716.006 717.126L716.028 717.111L716.051 717.096L707.686 704.646ZM746.123 662.897C746.123 640.146 737.145 621.286 719.008 608.24L701.49 632.594C711.185 639.567 716.123 649.028 716.123 662.897H746.123ZM719.249 608.417C702.804 596.083 675.993 586.775 641.227 579.378L634.984 608.721C669.065 615.973 690.351 624.243 701.249 632.417L719.249 608.417ZM641.248 579.383C607.73 572.2 581.885 563.747 563.213 554.299L549.668 581.067C571.523 592.126 600.122 601.251 634.963 608.717L641.248 579.383ZM563.279 554.332C544.81 544.872 532.101 534.131 524.111 522.546L499.415 539.578C510.956 556.312 528.032 569.985 549.602 581.033L563.279 554.332ZM524.21 522.692C516.584 511.35 512.48 497.518 512.48 480.524H482.48C482.48 502.593 487.898 522.452 499.315 539.431L524.21 522.692ZM512.48 480.524C512.48 452.982 523.788 429.621 548.017 409.718L528.975 386.536C498.517 411.555 482.48 443.125 482.48 480.524H512.48ZM547.967 409.759C572.369 389.892 603.97 379.436 643.965 379.436V349.436C598.51 349.436 559.799 361.44 529.026 386.495L547.967 409.759ZM643.965 379.436C686.246 379.436 718.956 390.301 743.493 410.749L762.698 387.702C731.571 361.763 691.527 349.436 643.965 349.436V379.436ZM743.542 410.79C768.201 431.16 780.21 456.597 780.21 488.215H810.21C810.21 447.567 794.143 413.678 762.649 387.661L743.542 410.79ZM795.21 473.215H727.095V503.215H795.21V473.215ZM742.095 488.215C742.095 464.684 731.762 444.683 712.98 428.79L693.602 451.692C706.558 462.655 712.095 474.636 712.095 488.215H742.095ZM713.068 428.865C694.291 412.729 670.866 405.1 643.965 405.1V435.1C664.915 435.1 681.041 440.898 693.515 451.618L713.068 428.865ZM643.965 405.1C617.297 405.1 594.354 410.895 576.938 424.339L595.269 448.087C605.685 440.046 621.317 435.1 643.965 435.1V405.1ZM576.938 424.339C559.404 437.874 550.229 456.268 550.229 478.327H580.229C580.229 465.718 584.971 456.036 595.269 448.087L576.938 424.339ZM550.229 478.327C550.229 499.401 558.979 516.675 576.539 527.94L592.738 502.689C584.419 497.352 580.229 489.968 580.229 478.327H550.229ZM576.539 527.94C591.887 537.786 617.493 546.16 651.297 553.753L657.873 524.483C624.294 516.94 603.269 509.445 592.738 502.689L576.539 527.94ZM651.32 553.758C684.575 561.175 710.759 569.877 730.274 579.634L743.691 552.801C721.214 541.563 692.466 532.198 657.85 524.478L651.32 553.758ZM730.274 579.634C749.647 589.32 762.856 600.493 771.042 612.671L795.94 595.936C784.107 578.33 766.31 564.111 743.691 552.801L730.274 579.634ZM771.203 612.906C779.38 624.588 783.872 639.382 783.872 658.137H813.872C813.872 634.411 808.11 613.316 795.78 595.702L771.203 612.906ZM783.872 658.137C783.872 688.822 771.926 712.851 747.326 731.513L765.457 755.414C797.498 731.108 813.872 698.252 813.872 658.137H783.872ZM747.392 731.464C722.307 750.277 688.985 760.324 646.162 760.324V790.324C693.671 790.324 733.835 779.131 765.392 755.464L747.392 731.464ZM646.162 760.324C616.2 760.324 590.326 755.028 568.202 744.851L555.665 772.106C582.369 784.39 612.647 790.324 646.162 790.324V760.324ZM568.202 744.851C545.964 734.622 528.99 720.643 516.755 703.042L492.122 720.165C507.719 742.603 529.075 759.874 555.665 772.106L568.202 744.851ZM516.873 703.214C504.797 685.316 498.931 666.366 498.931 646.052H468.931C468.931 672.612 476.736 697.364 492.004 719.993L516.873 703.214ZM483.931 661.052H551.68V631.052H483.931V661.052ZM536.701 646.857C538.138 673.571 549.029 695.719 569.43 711.981L588.129 688.521C574.839 677.928 567.663 663.942 566.658 645.246L536.701 646.857ZM569.617 712.128C590.007 727.857 615.982 735.026 646.162 735.026V705.026C620.678 705.026 601.731 699.012 587.941 688.374L569.617 712.128ZM646.162 735.026C673.651 735.026 697.378 729.545 716.006 717.126L699.365 692.165C687.231 700.254 669.942 705.026 646.162 705.026V735.026ZM716.051 717.096C735.401 704.095 746.123 685.715 746.123 662.897H716.123C716.123 674.748 711.22 684.2 699.32 692.195L716.051 717.096Z" fill="#AAB6FE"/>
</svg>
